<svg id="图层_1" data-name="图层 1" xmlns="http://www.w3.org/2000/svg" viewBox="0 0 901.35 658.16"><defs><style>.cls-1{fill:#9fa0a0;}</style></defs><title>damon</title><path class="cls-1" d="M287.72,85.59a2.49,2.49,0,0,0-.43-.36,1.85,1.85,0,0,1-1-1.46,1.73,1.73,0,0,1,.84-1.41c.92-.65,1.86-1.29,2.8-1.93q-3.62,1.25-7.17,2.56-52.11,19.23-90.38,52.22a13.24,13.24,0,0,0-4.6,10.28c0,.28,0,.57,0,.85s0,.41.07.62a13.65,13.65,0,0,0,.5,2.3l.18.52c0,.09.06.18.1.27a13.24,13.24,0,0,0,3.62,5.21c.51-.5,1-1,1.53-1.48,1-.95,2-1.9,3-2.85h0l-.13-.11a5.22,5.22,0,0,1-.6-.55,7.08,7.08,0,0,1,.38-10.33c1-.85,2-1.7,3-2.54q3-2.52,6.12-5,3.63-2.86,7.41-5.61a275.79,275.79,0,0,1,34.11-21.2q3.33-1.76,6.74-3.44,8.53-4.23,17.61-8c2.1-.88,4.23-1.75,6.37-2.59.79-.32,1.58-.63,2.38-.93s1.78-.69,2.67-1l2.7-1,1.81-.66,1.83-.65h0Zm429.44,59.15a13.15,13.15,0,0,0-.59-3.49c-.07-.21-.14-.42-.22-.63a4.87,4.87,0,0,0-.21-.53,5,5,0,0,0-.21-.48c-.08-.18-.17-.36-.26-.53h0a13.39,13.39,0,0,0-2-2.89q-.24-.26-.51-.51c-.17-.17-.35-.33-.53-.49q-36.81-31.75-86.66-50.79c-1.25-.49-2.51-1-3.77-1.42a1.4,1.4,0,0,1,.22.78,1.88,1.88,0,0,1-.93,1.46,1.83,1.83,0,0,0-.44.35l-2.45,2.71,3.63,1.35c33.94,12.79,62.56,29.78,86.33,50.29a7.1,7.1,0,0,1-.31,11s0,0-.07,0h0q1.82,1.68,3.59,3.4l.09.08c.29.27.58.55.87.85a13.52,13.52,0,0,0,3.09-4.05,14.3,14.3,0,0,0,.61-1.45c.09-.26.18-.52.25-.79s.13-.47.19-.72.07-.33.1-.5a6,6,0,0,0,.13-.74,12.3,12.3,0,0,0,.12-1.49A6.43,6.43,0,0,0,717.16,144.74Z"/><path class="cls-1" d="M664.71,587.43h0l-2.57,1.18q-8.86,4-18.34,7.6l-2.33.88-2.34.87c-49.31,18-111,28.07-186.61,28.07-75.81,0-137.58-10.16-186.95-28.21l-2.34-.87h0c-.77-.28-1.54-.57-2.3-.87q-9.51-3.62-18.37-7.64h0l-2.59-1.19-2.51-1.18h0c-51-24.21-86.16-58.2-107.88-98.54q-2.2-4.09-4.22-8.28v0q-1.23-8.67-2.3-17.51c-3.37-27.56-5.64-56.56-6.75-86.21-1.13-29.94-1-59.51.29-87.9.4-8.72.91-17.37,1.54-25.86v0q1.84-5.88,3.93-11.63c11.82-32.77,28.89-62.43,51.84-88a7.09,7.09,0,0,1,9.52-1l1.83,1.37q3.47-3.69,7.12-7.23a13.24,13.24,0,0,1-3.62-5.21c-1.52,1.47-3,2.95-4.48,4.44a13.18,13.18,0,0,0-5.05-1,13.37,13.37,0,0,0-10,4.5,266.2,266.2,0,0,0-47.48,75.72c-.56,1.32-1.11,2.64-1.63,4l-4.55,2c-.41.18-10,4.37-21.32,10.62A19.28,19.28,0,0,0,84.44,264a5.25,5.25,0,0,0-.56,0,6,6,0,0,0-3.55,1.17c-22.11,16.3-35.45,60.9-33.19,111,2.22,49.33,19.19,93,42.22,108.74a5.86,5.86,0,0,0,3,1,19.21,19.21,0,0,0,11.26,14.27,157.46,157.46,0,0,0,22,7.75l4.48,1.15-.79-4.55q-.59-3.37-1.14-6.81,2,3.45,4.17,6.81a214,214,0,0,0,17.8,24c24.42,28.59,56.81,51.57,96.48,68.48q9,3.83,18.42,7.23c1,.34,2,.69,3,1.05,1.8.63,3.61,1.26,5.44,1.86,50,16.66,110.16,25.09,179.08,25.09,68.76,0,128.84-8.39,178.75-25h0l2.71-.91.09,0q2.92-1,5.81-2l3-1.09.24-.09.1,0q7.25-2.68,14.18-5.62l.07,0,1.09-.6q4.72-5.22,8.71-10.61C666.39,586.65,665.56,587.05,664.71,587.43ZM91.35,478.94C70.92,463.7,55.23,422.82,53.11,375.86c-2.19-48.4,10.59-91,30.77-105.91a930.41,930.41,0,0,0-1.69,94.47c0,.23,0,.47,0,.71.11,3.56.25,7.14.4,10.73A932.22,932.22,0,0,0,92.73,479.93C92.27,479.61,91.81,479.29,91.35,478.94Zm14.29,16.65a14.29,14.29,0,0,1-8.43-11l-.09-.62c-1.09-7.42-2.07-14.86-3-22.13-3.32-27.55-5.56-56.58-6.63-86.3-1.09-29.95-1-59.55.4-88,.32-6.57.71-13.43,1.2-20.43,0-.33,0-.66.07-1a14.27,14.27,0,0,1,7.43-11.49c7.34-4.06,14-7.26,17.76-9q-.45,4.89-.85,9.86h0c-.77,9.66-1.41,19.53-1.88,29.51,0,.78-.07,1.56-.11,2.34-1.33,28.56-1.43,58.27-.3,88.32,1.12,29.79,3.4,58.94,6.79,86.63,0,.06,0,.11,0,.17h0c.91,7.45,1.9,14.83,3,22.09.87,6,1.8,11.85,2.77,17.62A154.93,154.93,0,0,1,105.64,495.59Z"/><path class="cls-1" d="M828.71,265.18a5.94,5.94,0,0,0-3.55-1.16,6.07,6.07,0,0,0-1.53.21,22.27,22.27,0,0,0-11.39-16.57c-11.43-6.32-21.16-10.57-21.57-10.74l-7.39-3.22a266.18,266.18,0,0,0-47.57-75.82,13.36,13.36,0,0,0-15-3.46q-2.18-2.21-4.44-4.4a2.29,2.29,0,0,0,.09-.28,14.3,14.3,0,0,1-.61,1.45,13.52,13.52,0,0,1-3.09,4.05q3.64,3.52,7.11,7.22l1.53-1.24a7,7,0,0,1,4.4-1.54,7.19,7.19,0,0,1,5.33,2.37c23,25.59,40.11,55.29,52,88.12h0c1.07,12.2,1.9,24.79,2.48,37.55,1.31,28.3,1.41,57.79.29,87.65-1.11,29.56-3.37,58.48-6.73,86-1.08,8.88-2.28,17.65-3.58,26.23h0c-21.78,40.42-57,74.46-108.24,98.67q-4,5.38-8.71,10.61l-1.09.6c40.15-17,72.88-40.08,97.5-68.91a214.36,214.36,0,0,0,17.77-24l-1.48,8.55,9-2.3a159.34,159.34,0,0,0,22.43-7.92,22.21,22.21,0,0,0,13.1-17.09,6.16,6.16,0,0,0,1.6.21,6,6,0,0,0,3.37-1.06c28.44-19.59,39.58-55.84,41.73-108.93C864.44,325.91,850.9,281.37,828.71,265.18ZM812.85,462.07q-1.4,11.63-3,22.81a16.32,16.32,0,0,1-9.61,12.53,156.43,156.43,0,0,1-21.5,7.6q1.26-7.31,2.42-14.82,1.54-10,2.89-20.37h0c.34-2.56.66-5.14,1-7.74,3.32-27.16,5.64-56.18,6.77-86.46,1.14-30.49,1-60.09-.29-88.15q-.29-6.27-.66-12.44a0,0,0,0,0,0,0q-.81-13.83-2-27.13h0c-.17-1.83-.33-3.66-.51-5.47,0,0,9.75,4.24,21.06,10.49A16.38,16.38,0,0,1,817.82,266q.75,10.58,1.27,21.46c1.34,28.06,1.52,57.66.41,88.15C818.41,405.89,816.13,434.91,812.85,462.07Zm43.58-86.3c-1.94,48-18.11,89.75-39.14,104.25a932.78,932.78,0,0,0,9.64-104.12A943.08,943.08,0,0,0,825.18,270C845.43,284.79,858.39,327.36,856.43,375.77Z"/><path class="cls-1" d="M717.16,144.74a13.15,13.15,0,0,0-.59-3.49c-.07-.21-.14-.42-.22-.63a4.87,4.87,0,0,0-.21-.53,5,5,0,0,0-.21-.48c-.08-.18-.17-.36-.26-.53h0a13.39,13.39,0,0,0-2-2.89q-.24-.26-.51-.51c-.17-.17-.35-.33-.53-.49q-36.81-31.75-86.66-50.79c-1.25-.49-2.51-1-3.77-1.42a1.4,1.4,0,0,1,.22.78,1.88,1.88,0,0,1-.93,1.46,1.83,1.83,0,0,0-.44.35l-2.45,2.71,3.63,1.35c33.94,12.79,62.56,29.78,86.33,50.29a7.1,7.1,0,0,1-.31,11h0l0,0h0q-4.95,3.93-9.43,8h0l-2.38,2.18-.57.52c-.6.56-1.19,1.11-1.77,1.68l-1.09,1.05-1.48,1.45c-.34.33-.67.67-1,1-.1.1-.19.2-.29.29l-1.68,1.73c-.77.81-1.54,1.62-2.29,2.43s-1.7,1.85-2.53,2.79-1.64,1.87-2.43,2.81L680,178.22c-.78.94-1.55,1.89-2.3,2.83s-1.48,1.9-2.21,2.85l-1.06,1.44q-.54.72-1,1.44c-.35.47-.69.95-1,1.43-.09.12-.17.25-.25.37-1.26,1.8-2.47,3.62-3.63,5.44-.29.45-.57.89-.84,1.34s-.66,1.06-1,1.59l-.37.62c-.46.77-.92,1.54-1.36,2.32-.28.49-.56,1-.83,1.47s-.55,1-.83,1.49c-1.07,2-2.09,4-3,6-.36.75-.71,1.5-1.06,2.25s-.69,1.51-1,2.26c-.44,1-.87,2-1.29,3-.31.76-.62,1.52-.92,2.28l-.3.76c-.34.89-.68,1.78-1,2.67l-.14.38-.81,2.3c-.09.25-.18.51-.26.76-.22.64-.43,1.28-.64,1.92q-.43,1.35-.84,2.7-.46,1.54-.9,3.09c-.61,2.18-1.16,4.36-1.67,6.55-.1.41-.19.83-.28,1.24s-.23,1-.35,1.55c0,0,0,0,0,0-.12.52-.23,1-.33,1.55q-7.53-1.75-15.09-3.37t-15.15-3.11q-3-.6-6.07-1.17l-5.12-.95-1.71-.32-4.37-.77-1.51-.26-.82-.14-4.71-.8c-1.76-.3-3.53-.58-5.29-.87l-3.75-.59-4.56-.7-4.7-.69-6.11-.86-4.81-.65-2.18-.28c-1.75-.23-3.49-.45-5.24-.66-2.1-.26-4.19-.51-6.29-.75l-.68-.08-5.61-.62-6.59-.69-3-.29c-1.75-.18-3.49-.34-5.23-.49l-.24,0c-1.64-.16-3.28-.3-4.91-.43l-3.8-.32-6.09-.46c-2.12-.16-4.25-.3-6.38-.44s-4.24-.28-6.37-.4c-3.5-.2-7-.38-10.49-.53-.6,0-1.21-.06-1.81-.09l-1.54-.06c-1.53-.07-3.07-.12-4.61-.18-2-.08-4.1-.14-6.15-.2s-4.1-.12-6.15-.16q-2.31-.06-4.62-.09l-3.3-.05q-3.42,0-6.84-.06l-3.7,0H452l-3.69,0-3.68,0-3.2,0-3.23.05c-1.55,0-3.11,0-4.66.09-2.05,0-4.1.1-6.15.16s-4.1.12-6.15.2-4.1.15-6.15.24q-6.15.25-12.3.62t-12.29.8q-6.13.43-12.28,1l-6.13.55q-6.14.57-12.26,1.24l-6.51.73q-5.93.67-11.86,1.46c-2.08.27-4.17.55-6.25.84l-5.68.8-6.25.92-6.24,1q-6.09,1-12.18,2l-6.09,1.08-5.32,1q-18.59,3.48-37.07,7.8c-.15-.71-.3-1.42-.44-2.13,0-.11-.05-.23-.08-.34-.12-.55-.24-1.1-.37-1.64-.28-1.22-.58-2.44-.88-3.65l-.56-2.09c-.13-.52-.27-1-.42-1.54-.34-1.21-.69-2.42-1.06-3.62l-.57-1.8c-.19-.6-.39-1.2-.59-1.8s-.34-1-.52-1.54-.44-1.25-.67-1.87-.46-1.24-.7-1.87a2.74,2.74,0,0,0-.15-.4c-.11-.31-.23-.61-.35-.91h0l-.15-.37q-2.05-5.25-4.57-10.41c-.21-.44-.43-.88-.65-1.31-.29-.59-.59-1.18-.89-1.76-.43-.84-.88-1.68-1.33-2.51s-.91-1.66-1.38-2.49q-1.71-3-3.59-6c-.4-.64-.81-1.27-1.23-1.91l-.4-.61c-.41-.63-.83-1.25-1.26-1.87s-.82-1.2-1.24-1.79l-.75-1.06c-.62-.87-1.25-1.74-1.9-2.6-.48-.65-1-1.3-1.47-1.94l-.51-.65c-.51-.65-1-1.3-1.55-1.95l-.26-.32c-.67-.84-1.37-1.68-2.07-2.51s-1.6-1.87-2.42-2.8l-1.88-2.1c-.64-.69-1.28-1.39-1.93-2.08q-.65-.69-1.32-1.38L215,167.11c-.53-.55-1.08-1.09-1.63-1.63l-1.66-1.63-1.25-1.19-1.4-1.32c-.41-.38-.81-.76-1.23-1.13q-1.82-1.68-3.74-3.33l-.06,0c-.72-.63-1.44-1.25-2.17-1.86s-1.36-1.15-2.06-1.72l-.16-.13-1.27-1-1.44-1.16h0l-.13-.11a5.22,5.22,0,0,1-.6-.55,7.06,7.06,0,0,1,.36-10.34c1-.85,2-1.7,3-2.53q3-2.53,6.12-5,3.63-2.86,7.41-5.61a275.79,275.79,0,0,1,34.11-21.2q3.33-1.76,6.74-3.44,8.53-4.23,17.61-8c2.1-.88,4.23-1.75,6.37-2.59.79-.32,1.58-.63,2.38-.93s1.78-.69,2.67-1l2.69-1,1.82-.65c.6-.23,1.21-.44,1.82-.66l-1.52-1.69a2.49,2.49,0,0,0-.43-.36,1.85,1.85,0,0,1-1-1.46,1.73,1.73,0,0,1,.84-1.41c.92-.65,1.86-1.29,2.8-1.93q-3.62,1.25-7.17,2.56-52.11,19.23-90.38,52.22a13.24,13.24,0,0,0-4.6,10.28c0,.28,0,.57,0,.85s0,.41.07.62a13.65,13.65,0,0,0,.5,2.3l.18.52c0,.09.06.18.1.27a13.24,13.24,0,0,0,3.62,5.21s0,0,0,0l.44.38.05,0,.15.13.36.29c.35.27.69.55,1,.83,30.58,24.71,48.88,53.64,55.89,88.4a6.19,6.19,0,0,0,2.75,4,6.3,6.3,0,0,0,4.8.83A857.48,857.48,0,0,1,452,227.73h.74A857,857,0,0,1,647,250.19a6.25,6.25,0,0,0,7.54-4.85c7-34.6,25.36-63.55,56.14-88.43.34-.28.68-.56,1-.82l.2-.17a1.84,1.84,0,0,0,.22-.17c.2-.16.4-.32.59-.49l0,0a13.52,13.52,0,0,0,3.09-4.05,14.3,14.3,0,0,0,.61-1.45c.09-.26.18-.52.25-.79s.13-.47.19-.72.07-.33.1-.5a6,6,0,0,0,.13-.74,14.71,14.71,0,0,0,.11-1.49C717.18,145.24,717.17,145,717.16,144.74Z"/><path class="cls-1" d="M269.31,604.42c-2.24-.83-4.58-1.63-6.87-2.4-5.45-1.85-11.08-3.76-15.34-6.18-50.66-56.1-35.12-126-18.66-199.91,18.31-82.28,37.23-167.35-41.33-233.46,3.12-3.3,6.42-6.6,9.85-9.83,31.84,25.56,50.88,55.58,58.17,91.73a1.31,1.31,0,0,0,.57.84,1.27,1.27,0,0,0,.7.21,1,1,0,0,0,.3,0A861.42,861.42,0,0,1,452,222.79h.74a861.49,861.49,0,0,1,195.32,22.59,1.54,1.54,0,0,0,.3,0,1.25,1.25,0,0,0,.7-.21,1.28,1.28,0,0,0,.57-.84c7.27-36,26.4-66.05,58.47-91.79,3.21,3,6.1,6.17,9.15,9.45l.4.44C639.1,228.58,658,313.65,676.34,395.93c16.46,73.95,32,143.81-18.66,199.91-4.26,2.41-9.89,4.32-15.34,6.17-2.29.78-4.62,1.57-6.87,2.41,58.06-68.18,43.83-128.36,27.41-197.83-10.45-44.2-21.25-89.9-15.9-144.1a1.3,1.3,0,0,0-1-1.4,860.89,860.89,0,0,0-387.19,0,1.29,1.29,0,0,0-1,1.4c5.36,54.21-5.45,99.91-15.9,144.11C225.48,476.06,211.25,536.24,269.31,604.42Z"/><path class="cls-1" d="M719.58,162.59c-2.31-2.47-4.56-4.92-6.91-7.33l-.85-.87-.09-.08c-1.14-1.16-2.31-2.31-3.53-3.44l0,0,0,0q-4.95,3.94-9.44,8h0l-2.38,2.18c-.79.73-1.57,1.46-2.34,2.2l-1.09,1.05-1.48,1.45c-.34.33-.67.67-1,1-.1.1-.19.2-.29.29l-1.68,1.73c-.77.81-1.54,1.62-2.29,2.43s-1.7,1.85-2.53,2.79-1.64,1.87-2.43,2.81L680,178.22c-.78.94-1.55,1.89-2.3,2.83s-1.48,1.9-2.21,2.85l-1.06,1.44q-.54.72-1,1.44l-1.28,1.8c-1.26,1.8-2.47,3.62-3.63,5.44-.29.45-.57.89-.84,1.34-.46.73-.91,1.47-1.35,2.21s-.92,1.54-1.36,2.32c-.28.49-.56,1-.83,1.47s-.55,1-.83,1.49q-1.59,3-3,6c-.36.75-.71,1.5-1.06,2.25s-.69,1.51-1,2.26c-.44,1-.87,2-1.29,3-.31.76-.62,1.52-.92,2.28l-.3.76c-.34.89-.68,1.78-1,2.67l-.14.38-.81,2.3c-.09.25-.18.51-.26.76-.22.64-.43,1.28-.64,1.92q-.43,1.35-.84,2.7-.46,1.54-.9,3.09c-.61,2.18-1.16,4.36-1.67,6.55-.1.41-.19.83-.28,1.24s-.23,1-.35,1.55c0,0,0,0,0,0-.11.52-.21,1-.32,1.57q-7.53-1.77-15.1-3.39t-15.15-3.11q-3-.6-6.07-1.17l-5.12-.95c-2.52-.46-5.06-.91-7.59-1.35l-.82-.14-4.71-.8c-1.76-.3-3.53-.58-5.29-.87l-3.75-.59-4.56-.7-4.7-.69-6.11-.86-4.81-.65-2.18-.28c-1.75-.23-3.49-.45-5.24-.66-2.1-.26-4.19-.51-6.29-.75l-.68-.08-5.61-.62-6.59-.69-3-.29c-1.75-.18-3.49-.34-5.23-.49l-.24,0c-1.64-.16-3.28-.3-4.91-.43l-3.8-.32-6.09-.46c-2.12-.16-4.25-.3-6.38-.44s-4.24-.28-6.37-.4c-3.5-.2-7-.38-10.49-.53-1.11-.06-2.23-.11-3.35-.15-1.53-.07-3.07-.12-4.61-.18-2-.08-4.1-.14-6.15-.2s-4.1-.12-6.15-.16q-2.31-.06-4.62-.09l-3.3-.05q-3.42,0-6.84-.06h-8.13l-3.68,0-3.2,0-3.23.05c-1.55,0-3.11,0-4.66.09-2.05,0-4.1.1-6.15.16s-4.1.12-6.15.2-4.1.15-6.15.24q-6.15.27-12.3.62t-12.29.8q-6.13.45-12.28,1l-6.13.55q-6.14.58-12.26,1.24l-6.51.73q-5.94.69-11.86,1.46c-2.08.27-4.17.55-6.25.84l-5.68.8-6.25.92-6.24,1q-6.1,1-12.18,2l-6.09,1.08-5.32,1q-18.59,3.51-37.07,7.82v0c-.17-.82-.34-1.65-.52-2.47-.12-.55-.24-1.1-.37-1.64-.28-1.22-.58-2.44-.88-3.65l-.56-2.09c-.13-.52-.27-1-.42-1.54-.34-1.21-.69-2.42-1.06-3.62l-.57-1.8c-.19-.6-.39-1.2-.59-1.8s-.34-1-.52-1.54-.44-1.25-.67-1.87-.46-1.24-.7-1.87a2.74,2.74,0,0,0-.15-.4c-.11-.31-.23-.61-.35-.91h0l-.15-.37q-2.05-5.25-4.57-10.41c-.21-.44-.43-.88-.65-1.31-.29-.59-.59-1.18-.89-1.76-.43-.84-.88-1.68-1.33-2.51s-.91-1.66-1.38-2.49q-1.71-3-3.59-6c-.4-.64-.81-1.27-1.23-1.91l-.4-.61c-.41-.63-.83-1.25-1.26-1.87s-.82-1.2-1.24-1.79l-.75-1.06c-.62-.87-1.25-1.74-1.9-2.6-.48-.65-1-1.3-1.47-1.94l-.51-.65c-.51-.65-1-1.3-1.55-1.95l-.26-.32c-.67-.84-1.37-1.68-2.07-2.51s-1.6-1.87-2.42-2.8l-1.88-2.1c-.64-.69-1.28-1.39-1.93-2.08q-.65-.69-1.32-1.38L215,167.11c-.53-.55-1.08-1.09-1.63-1.63l-1.66-1.63-1.25-1.19-1.4-1.32c-.41-.38-.81-.76-1.23-1.13q-1.82-1.68-3.74-3.33l-.06,0c-.72-.63-1.44-1.25-2.17-1.86s-1.36-1.15-2.06-1.72l-.16-.13-1.27-1-1.44-1.16c-1,.95-2,1.9-3,2.85l-1.52,1.49q-3.66,3.58-7.14,7.32C329.71,282.53,148,464.84,237.42,586.07h0a137.49,137.49,0,0,0,8.84,10.79l.32.18c5.13,2.88,12,5,18.42,7.23,1,.34,2,.69,3,1.05,2.06.75,4.05,1.52,5.88,2.36-.15-.17-.3-.33-.44-.5q-4.17-4.71-7.87-9.36c-85.74-107.61,7.22-196.85-6.47-335.46a860.6,860.6,0,0,1,193.3-22h0a860.6,860.6,0,0,1,193.3,22C632,401,725.05,490.28,639.12,598c-2.47,3.1-5.08,6.2-7.85,9.33h0l-.34.39c1-.45,2-.88,3.06-1.3l.09,0c2.77-1.1,5.76-2.11,8.77-3.12l.24-.09.1,0a101.44,101.44,0,0,0,14.18-5.62l.07,0,1.09-.6q4.72-5.22,8.71-10.61C757,465,575,282.58,719.58,162.59Zm-44.5,233.62c15.76,70.84,30.69,137.89-13,192.4-1.67,2.08-3.42,4.15-5.27,6.2-4.13,2.3-9.62,4.17-14.93,6l-2.41.82c1.47-1.8,2.9-3.6,4.27-5.39,49.88-65,36.13-123.19,20.36-189.92C653.73,362.2,643,316.6,648.28,262.61a2.6,2.6,0,0,0-2-2.79,864.8,864.8,0,0,0-193.75-22.08h-.26a864.74,864.74,0,0,0-193.75,22.08,2.6,2.6,0,0,0-2,2.79c5.34,54-5.44,99.59-15.87,143.68C224.89,473,211.14,531.15,260.91,596.08q2.1,2.74,4.37,5.52l-2.41-.82c-5.31-1.8-10.8-3.67-14.93-6-1.9-2.1-3.7-4.23-5.4-6.37h0C199.06,534,214,467,229.72,396.21,248,313.92,267,228.85,189,162.37c1.74-1.82,3.53-3.64,5.37-5.43.87-.87,1.76-1.72,2.66-2.57,31.07,25.21,49.67,54.75,56.83,90.26a2.59,2.59,0,0,0,2.55,2.08,2.32,2.32,0,0,0,.59-.07,859.92,859.92,0,0,1,195-22.56h.74a860,860,0,0,1,195,22.56,2.38,2.38,0,0,0,.59.07,2.66,2.66,0,0,0,1.41-.41,2.6,2.6,0,0,0,1.14-1.67c7.13-35.36,25.82-64.93,57.11-90.31.88.86,1.74,1.72,2.59,2.59,1.74,1.77,3.43,3.59,5.16,5.45C637.84,228.84,656.76,313.92,675.08,396.21Z"/><path class="cls-1" d="M98.63,479a924.21,924.21,0,0,1-10-103.4,935.49,935.49,0,0,1,1.26-105.24,5.86,5.86,0,0,0-.7-3.23c-.49,7-.88,13.86-1.2,20.43-1.35,28.43-1.49,58-.4,88,1.07,29.72,3.31,58.75,6.63,86.3.88,7.27,1.86,14.71,3,22.13A5.94,5.94,0,0,0,98.63,479Z"/><path class="cls-1" d="M82.61,375.86c-.15-3.59-.29-7.17-.4-10.73q.14,5.3.33,10.6c1.08,29.81,3.32,59,6.67,86.71.66,5.51,1.38,11,2.14,16.5.46.35.92.67,1.38,1A932.22,932.22,0,0,1,82.61,375.86Z"/><path class="cls-1" d="M623.61,79.41c-39.39-27.74-96.33-41.8-169.25-41.8S324.49,51.68,285.11,79.42a5.35,5.35,0,0,0-2.3,3.57,4.57,4.57,0,0,0-.06.83,5.23,5.23,0,0,0,2.4,4.28h0l.43.48h0l38.55,42.87a1.77,1.77,0,0,0,1.45.59c.85-.05,85.85-5.63,128.43-5.65h.49c42.57,0,127.57,5.59,128.42,5.65h.12a1.86,1.86,0,0,0,1.33-.58l37.78-41.86,1.33-1.47a5.44,5.44,0,0,0,2.41-3.76,3.66,3.66,0,0,0,.05-.57A5.28,5.28,0,0,0,623.61,79.41Zm-1.24,4.34a1.88,1.88,0,0,1-.93,1.46,1.83,1.83,0,0,0-.44.35l-2.45,2.71-36.24,40.14c-9.12-.59-87.42-5.58-127.78-5.6H454c-40.37,0-118.66,5-127.79,5.62l-37-41.14h0l-1.52-1.69a2.49,2.49,0,0,0-.43-.36,1.85,1.85,0,0,1-1-1.46,1.73,1.73,0,0,1,.84-1.41c.92-.65,1.86-1.29,2.8-1.93,38.65-26,93.93-39.23,164.38-39.23,72.16,0,128.41,13.84,167.18,41.14a2.13,2.13,0,0,1,.61.63A1.4,1.4,0,0,1,622.37,83.75Z"/></svg>