<svg id="图层_1" data-name="图层 1" xmlns="http://www.w3.org/2000/svg" viewBox="0 0 200 200"><defs><style>.cls-1{fill:#9fa0a0;}</style></defs><title>empty</title><path class="cls-1" d="M168.59,42.15c-.14-.31-.28-.63-.45-.93.16.31.31.63.45,1l27,61.66Zm-1.69-3h0l.45.66Zm-10.58-8a22.7,22.7,0,0,1,3.36,1.56A20.45,20.45,0,0,0,156.32,31.18ZM150,30H50a17.89,17.89,0,0,0-5.63,1A18.46,18.46,0,0,1,50,30H150a18.46,18.46,0,0,1,5.63.94A17.89,17.89,0,0,0,150,30Z"/><path class="cls-1" d="M199.89,122.32A67.15,67.15,0,0,0,197,107.64l-.24-.69-.29-.83c-.09-.26-.19-.53-.29-.79-.2-.52-.4-1-.61-1.49h0l-27-61.66c-.14-.32-.29-.64-.45-1h0a15.93,15.93,0,0,0-.8-1.38l-.45-.66h0c-.15-.22-.31-.43-.48-.64v0c-.29-.38-.6-.75-.92-1.11,0,0,0,0,0,0a23.11,23.11,0,0,0-5.79-4.63,22.7,22.7,0,0,0-3.36-1.56l-.69-.24A18.46,18.46,0,0,0,150,30H50a18.46,18.46,0,0,0-5.63.94c-.69.23-1.39.5-2.06.79a21.94,21.94,0,0,0-2,1c-.65.38-1.29.78-1.91,1.21s-1.2.88-1.76,1.36h0c-.38.33-.74.66-1.09,1-.18.17-.35.34-.52.52a18.49,18.49,0,0,0-3.61,5.32L4.47,103.75c-.35.78-.68,1.63-1.06,2.72l-.17.48-.14.41a66.92,66.92,0,0,0-3,15C0,123.26,0,124.16,0,125v40a15,15,0,0,0,15,15H185a15,15,0,0,0,15-15V125C200,124.16,200,123.26,199.89,122.32ZM8,108.56c.39-1.15.72-2,1.06-2.76L36,44.17C38.19,39.11,44.48,35,50,35H150c5.52,0,11.8,4.11,14,9.17l27,61.68c.35.8.7,1.71,1,2.71l2.69,7.87-8.21-1.31A9.24,9.24,0,0,0,185,115H125v5a25,25,0,0,1-50,0v-5H15a9.24,9.24,0,0,0-1.51.12l-8.21,1.31Zm187,56.77c0,5.06-4.49,9.17-10,9.17H15c-5.51,0-10-4.11-10-9.17V128.67a9,9,0,0,1,5-7.93l4.3-.69a5.27,5.27,0,0,1,.71,0H70a30,30,0,0,0,60,0h55a5.55,5.55,0,0,1,.72,0l4.29.69a9,9,0,0,1,5,7.93Z"/><path class="cls-1" d="M3.1,107.36a66.92,66.92,0,0,0-3,15"/><path class="cls-1" d="M166.9,39.17h0l.45.66Z"/><text/></svg>