<svg id="图层_1" data-name="图层 1" xmlns="http://www.w3.org/2000/svg" viewBox="0 0 200 200"><defs><style>.cls-1{fill:#9fa0a0;}</style></defs><title>open</title><path class="cls-1" d="M12.5,70.31V21.88a9.36,9.36,0,0,1,9.38-9.38H70.31A4.7,4.7,0,0,1,75,17.19V32.81a4.7,4.7,0,0,1-4.69,4.69H37.5V70.31A4.7,4.7,0,0,1,32.81,75H17.19A4.7,4.7,0,0,1,12.5,70.31ZM125,17.19V32.81a4.7,4.7,0,0,0,4.69,4.69H162.5V70.31A4.7,4.7,0,0,0,167.19,75h15.62a4.7,4.7,0,0,0,4.69-4.69V21.88a9.35,9.35,0,0,0-9.37-9.38H129.69A4.7,4.7,0,0,0,125,17.19ZM182.81,125H167.19a4.7,4.7,0,0,0-4.69,4.69V162.5H129.69a4.7,4.7,0,0,0-4.69,4.69v15.62a4.7,4.7,0,0,0,4.69,4.69h48.44a9.35,9.35,0,0,0,9.37-9.37V129.69A4.7,4.7,0,0,0,182.81,125ZM75,182.81V167.19a4.7,4.7,0,0,0-4.69-4.69H37.5V129.69A4.7,4.7,0,0,0,32.81,125H17.19a4.7,4.7,0,0,0-4.69,4.69v48.44a9.35,9.35,0,0,0,9.38,9.37H70.31A4.7,4.7,0,0,0,75,182.81Z"/></svg>