<svg id="图层_2" data-name="图层 2" xmlns="http://www.w3.org/2000/svg" viewBox="0 0 16 16"><defs><style>.cls-1{fill:#9fa0a0;}</style></defs><title>alert_template</title><path class="cls-1" d="M4,8.76c0,.05,0,.2,0,.05S4,8.76,4,8.76Zm8-.09v.06S12,8.51,12,8.67ZM4,8.76c0,.05,0,.2,0,.05S4,8.76,4,8.76Zm8-.09v.06S12,8.51,12,8.67Z"/><path class="cls-1" d="M12,8.67v.06S12,8.51,12,8.67ZM4,8.76c0,.05,0,.2,0,.05S4,8.76,4,8.76Z"/><polygon class="cls-1" points="8 13.99 8 14.93 2.07 15 2.06 14.06 8 13.99"/><rect class="cls-1" x="4.8" y="1.26" width="1" height="1.77" transform="translate(-0.41 2.44) rotate(-24.97)"/><rect class="cls-1" x="10.05" y="1.41" width="1.76" height="1" transform="matrix(0.53, -0.85, 0.85, 0.53, 3.53, 10.18)"/><rect class="cls-1" x="13.24" y="4.83" width="1.9" height="1" transform="translate(-0.96 5.77) rotate(-22.26)"/><polygon class="cls-1" points="2.81 5.4 2.6 5.85 2.39 6.31 0.76 5.55 0.97 5.1 1.18 4.65 2.81 5.4"/><path class="cls-1" d="M12.46,8.17A4.79,4.79,0,0,0,8,4H8A4.81,4.81,0,0,0,3.55,8.37l0,4.67L8,13V12L7,12V10H6v2H4.57l0-3.61A3.82,3.82,0,0,1,8,5a3.82,3.82,0,0,1,3.49,3.3l0,.62V9h1V8.88ZM4,8.76s0,0,0,.05S4,8.81,4,8.76Zm8,0V8.67C12,8.51,12,8.73,12,8.73Z"/><rect class="cls-1" x="10" y="11" width="5" height="1"/><rect class="cls-1" x="10" y="13" width="5" height="1"/><rect class="cls-1" x="10" y="15" width="5" height="1"/></svg>