<?xml version="1.0" encoding="utf-8"?>
<svg version="1.1" id="图层_1" xmlns="http://www.w3.org/2000/svg" xmlns:xlink="http://www.w3.org/1999/xlink" x="0px" y="0px"
 viewBox="0 0 16 16" style="enable-background:new 0 0 16 16;vertical-align:text-top;width:16px; height:16px; color:#B85450; " xml:space="preserve">
 <style type="text/css">.st0{fill:currentColor;}</style>
  <path class="st0" d="M12.5,8.9V8.2C12.2,5.9,10.3,4.1,8,4l0,0C5.6,4.2,3.8,6,3.5,8.4V13l9-0.1L12.5,8.9z M5.8,11.8V8.6h1v3.2H5.8z"/>
            <rect x="2.1" y="14" transform="matrix(1 -9.773688e-03 9.773688e-03 1 -0.1413 7.948156e-02)" class="st0" width="12" height="1"/>
            <rect x="4.8" y="1.3" transform="matrix(0.9065 -0.4221 0.4221 0.9065 -0.411 2.4381)" class="st0" width="1" height="1.8"/>
            <rect x="10.1" y="1.4" transform="matrix(0.5291 -0.8486 0.8486 0.5291 3.5409 10.1842)" class="st0" width="1.8" height="1"/>
            <rect x="13.2" y="4.8" transform="matrix(0.9255 -0.3788 0.3788 0.9255 -0.9605 5.7729)" class="st0" width="1.9" height="1"/>
            <polygon class="st0" points="2.8,5.4 2.6,5.8 2.4,6.3 0.8,5.6 1,5.1 1.2,4.7 "/>
 </svg>
