<svg id="图层_2" data-name="图层 2" xmlns="http://www.w3.org/2000/svg" viewBox="0 0 16 16"><defs><style>.cls-1{fill:#3088d8;}</style></defs><title>alert</title><path class="cls-1" d="M12.39,8.75v.07S12.43,8.57,12.39,8.75Zm-8.8.1c0,.05,0,.22,0,.05S3.59,8.85,3.59,8.85Zm8.8-.1v.07S12.43,8.57,12.39,8.75Zm-8.8.1c0,.05,0,.22,0,.05S3.59,8.85,3.59,8.85Z"/><path class="cls-1" d="M13,9l0-.78A5.27,5.27,0,0,0,8,3.6H8c-2.64,0-4.64,2.46-4.88,4.82l0,5.15L13,13.49ZM4.21,12.46l0-4A4.21,4.21,0,0,1,8,4.7a4.22,4.22,0,0,1,3.85,3.64l0,.69,0,3.36Z"/><rect class="cls-1" x="1.44" y="14.63" width="13.24" height="1.1" transform="translate(-0.15 0.08) rotate(-0.56)"/><rect class="cls-1" x="4.46" y="0.57" width="1.1" height="1.96" transform="translate(-0.19 2.26) rotate(-24.97)"/><rect class="cls-1" x="10.26" y="0.74" width="1.95" height="1.1" transform="translate(4.19 10.13) rotate(-58.05)"/><rect class="cls-1" x="13.77" y="4.51" width="2.09" height="1.1" transform="translate(-0.81 5.99) rotate(-22.26)"/><polygon class="cls-1" points="2.26 5.14 2.03 5.64 1.8 6.14 0 5.31 0.23 4.81 0.46 4.31 2.26 5.14"/><rect class="cls-1" x="5.78" y="10.22" width="1.1" height="3.31"/></svg>