<svg id="图层_2" data-name="图层 2" xmlns="http://www.w3.org/2000/svg" viewBox="0 0 16 16"><defs><style>.cls-1{fill:none;stroke-linejoin:round;}.cls-1,.cls-2{stroke:#9fa0a0;}.cls-2,.cls-3{fill:#9fa0a0;}.cls-2{stroke-miterlimit:10;}</style></defs><title>all_processed</title><polyline class="cls-1" points="13.5 5.97 13.5 1.58 9.14 1.58 1.5 1.58 1.5 15.58 8 15.58"/><line class="cls-1" x1="4" y1="1.58" x2="7" y2="1.58"/><polygon class="cls-2" points="8 12.53 11.12 15.5 15.73 7.64 14.4 7 10.91 13.01 8.47 10.94 8 12.53"/><rect class="cls-3" x="3" y="5" width="1" height="1"/><rect class="cls-3" x="3" y="7" width="1" height="1"/><rect class="cls-3" x="3" y="9" width="1" height="1"/><rect class="cls-3" x="3" y="11" width="1" height="1"/><rect class="cls-3" x="5" y="5" width="4" height="1"/><rect class="cls-3" x="5" y="7" width="7" height="1"/><rect class="cls-3" x="5" y="9" width="4" height="1"/><rect class="cls-3" x="5" y="11" width="2" height="1"/></svg>