<svg xmlns="http://www.w3.org/2000/svg" viewBox="0 0 16 16"><defs><style>.cls-1{fill:none;stroke:#9fa0a0;stroke-miterlimit:10;}.cls-2{fill:#9fa0a0;stroke:#9fa0a0;stroke-linejoin:round;}</style></defs><title>audit_rule</title><g id="图层_2" data-name="图层 2"><line class="cls-1" x1="10" y1="14.5" x2="15" y2="14.5"/><line class="cls-1" x1="10" y1="12.5" x2="15" y2="12.5"/><line class="cls-1" x1="10" y1="10.5" x2="15" y2="10.5"/><path class="cls-1" d="M8.4,4.07a2.47,2.47,0,0,1-4.93,0,2.47,2.47,0,0,1,4.93,0Z"/><path class="cls-1" d="M10.75,8,9,10.53,7.92,12.11,7.86,13l-.06.77H1.36c-.06-.29-.11-.54-.16-.77A7.56,7.56,0,0,1,1,11.45c0-1.29.53-3.37,1.36-3.89h7.93A1.48,1.48,0,0,1,10.75,8Z"/><rect class="cls-2" x="11.5" y="6.61" width="1.16" height="1.44" transform="matrix(0.57, -0.82, 0.82, 0.57, -0.82, 13.1)"/><polygon class="cls-2" points="10.5 8.36 11.68 9.17 8.06 14.41 6.48 15.33 6.88 13.59 10.5 8.36"/></g></svg>