<svg xmlns="http://www.w3.org/2000/svg" viewBox="0 0 16 16"><defs><style>.cls-1,.cls-2{fill:#3088d8;}.cls-2{stroke:#3088d8;stroke-linejoin:round;}</style></defs><title>batch</title><g id="图层_2" data-name="图层 2"><path class="cls-1" d="M14.5,1h-7A1.5,1.5,0,0,0,6,2.5V4H2.5A1.5,1.5,0,0,0,1,5.5v7.59A1.5,1.5,0,0,0,1.5,16H7V15H1.5a.5.5,0,0,1,0-1H7V13H2V5.5A.5.5,0,0,1,2.5,5h7a.5.5,0,0,1,0,1H9v.9l1,.49V6.91A1.5,1.5,0,0,0,9.5,4H7V2.5A.5.5,0,0,1,7.5,2h7a.5.5,0,0,1,0,1H14V9.32l1,.48V3.91A1.5,1.5,0,0,0,14.5,1Z"/><rect class="cls-1" x="3.5" y="7" width="2" height="1"/><rect class="cls-1" x="3.5" y="9" width="3.56" height="1"/><rect class="cls-1" x="3.5" y="11" width="3.55" height="1"/><polygon class="cls-2" points="8.53 8.5 15.5 11.71 8.5 15.5 8.5 15.23 8.52 8.77 8.53 8.5"/></g></svg>