<svg xmlns="http://www.w3.org/2000/svg" viewBox="0 0 16 16"><defs><style>.cls-1{fill:#9fa0a0;}.cls-2,.cls-3,.cls-4{fill:none;stroke:#9fa0a0;stroke-miterlimit:10;}.cls-3{stroke-dasharray:1.6 1.6;}.cls-4{stroke-dasharray:1.71 1.71;}</style></defs><title>column_virtual</title><g id="图层_2" data-name="图层 2"><rect class="cls-1" x="2" width="11" height="2"/><polyline class="cls-2" points="12.5 14.5 12.5 15.5 11.5 15.5"/><line class="cls-3" x1="9.9" y1="15.5" x2="4.3" y2="15.5"/><polyline class="cls-2" points="3.5 15.5 2.5 15.5 2.5 14.5"/><line class="cls-4" x1="2.5" y1="12.79" x2="2.5" y2="3.36"/><polyline class="cls-2" points="2.5 2.5 2.5 1.5 3.5 1.5"/><line class="cls-3" x1="5.1" y1="1.5" x2="10.7" y2="1.5"/><polyline class="cls-2" points="11.5 1.5 12.5 1.5 12.5 2.5"/><line class="cls-4" x1="12.5" y1="4.21" x2="12.5" y2="13.64"/><line class="cls-2" x1="2.5" y1="4.5" x2="3.5" y2="4.5"/><line class="cls-3" x1="5.1" y1="4.5" x2="10.7" y2="4.5"/><line class="cls-2" x1="11.5" y1="4.5" x2="12.5" y2="4.5"/><line class="cls-2" x1="2.5" y1="7.5" x2="3.5" y2="7.5"/><line class="cls-3" x1="5.1" y1="7.5" x2="10.7" y2="7.5"/><line class="cls-2" x1="11.5" y1="7.5" x2="12.5" y2="7.5"/><line class="cls-2" x1="2.5" y1="11.5" x2="3.5" y2="11.5"/><line class="cls-3" x1="5.1" y1="11.5" x2="10.7" y2="11.5"/><line class="cls-2" x1="11.5" y1="11.5" x2="12.5" y2="11.5"/></g></svg>