<svg xmlns="http://www.w3.org/2000/svg" viewBox="0 0 16 16"><defs><style>.cls-1{fill:none;stroke:#3088d8;}.cls-1,.cls-2{stroke-miterlimit:10;}.cls-2{fill:#22ac38;stroke:#22ac38;}</style></defs><title>connect</title><g id="图层_2" data-name="图层 2"><path class="cls-1" d="M11.69,5.9l-.08-.09L6.15,11l.08.09c2.36,2.49,5.5,3.35,7,1.92S14.06,8.39,11.69,5.9Z"/><line class="cls-1" x1="13.16" y1="13.07" x2="15.06" y2="15.26"/><line class="cls-1" x1="8.47" y1="5.42" x2="10.15" y2="7.11"/><line class="cls-1" x1="5" y1="8" x2="7.15" y2="10.11"/><path class="cls-1" d="M2.91,1.78c-1.54,1.36-1,4.5,1.23,7.05l5.63-5C7.5,1.33,4.45.41,2.91,1.78Z"/><line class="cls-1" x1="2.91" y1="1.78" x2="0.98" y2="-0.46"/><path class="cls-2" d="M5.24,13.19a2.33,2.33,0,1,1-2.33-2.33A2.32,2.32,0,0,1,5.24,13.19Z"/></g></svg>