<svg xmlns="http://www.w3.org/2000/svg" viewBox="0 0 16 16"><defs><style>.cls-1,.cls-3{fill:none;}.cls-2{fill:#9fa0a0;}.cls-3{stroke:#9fa0a0;stroke-linejoin:round;}</style></defs><title>context_index</title><g id="图层_2" data-name="图层 2"><path class="cls-1" d="M9.79,5.58A4.7,4.7,0,0,1,12,6.13V1.6a.6.6,0,0,0-.6-.6H2.6a.6.6,0,0,0-.6.6V14.4a.6.6,0,0,0,.6.6H12v-.56A4.71,4.71,0,1,1,9.79,5.58ZM3,3V2h8V3Z"/><rect class="cls-2" x="3" y="3" width="8" height="1"/><path class="cls-2" d="M12,1.6a.6.6,0,0,0-.6-.6H2.6a.6.6,0,0,0-.6.6V14.4a.6.6,0,0,0,.6.6H12v-.56a3.84,3.84,0,0,0,.5-.32,3.25,3.25,0,0,0,.5-.4V15.4a.6.6,0,0,1-.6.6H1.6a.6.6,0,0,1-.6-.6V.6A.6.6,0,0,1,1.6,0H12.4a.6.6,0,0,1,.6.6V6.85a3.25,3.25,0,0,0-.5-.4,3.84,3.84,0,0,0-.5-.32"/><line class="cls-3" x1="11.75" y1="12.16" x2="15.29" y2="15.5"/><path class="cls-3" d="M12.5,10.29A2.71,2.71,0,1,1,9.79,7.58,2.7,2.7,0,0,1,12.5,10.29Z"/></g></svg>