<svg xmlns="http://www.w3.org/2000/svg" viewBox="0 0 16 16"><defs><style>.cls-1{fill:#3088d8;}</style></defs><title>dashboard</title><g id="图层_2" data-name="图层 2"><polygon class="cls-1" points="11.65 3.91 9.01 11.84 6.82 12.29 6.12 10.17 11.65 3.91"/><path class="cls-1" d="M1,9H1V8.77A1.77,1.77,0,0,0,1,9Z"/><path class="cls-1" d="M1.05,8a2.74,2.74,0,0,0,0,.5,1.23,1.23,0,0,0,0,.27V8Z"/><path class="cls-1" d="M8,2a4.19,4.19,0,0,0-.5,0,2.73,2.73,0,0,0-.5.05V2Z"/><path class="cls-1" d="M15,8v.77a1.23,1.23,0,0,0,0-.27A2.74,2.74,0,0,0,15,8Z"/><path class="cls-1" d="M15,8.77V9h0A1.77,1.77,0,0,0,15,8.77Z"/><path class="cls-1" d="M16,8.77a7.65,7.65,0,0,1-3.08,6.13l-.3-.4-.31-.4A6.61,6.61,0,0,0,15,9h0V8H15A6.92,6.92,0,0,0,8,2H7v.08A6.87,6.87,0,0,0,1.05,8H1V9H1a6.61,6.61,0,0,0,2.68,5.1l-.3.4h0l-.3.4A7.65,7.65,0,0,1,0,8.77,7.9,7.9,0,0,1,8,1,7.9,7.9,0,0,1,16,8.77Z"/><path class="cls-1" d="M1,9H1V8.77A1.77,1.77,0,0,0,1,9Z"/><path class="cls-1" d="M1.05,8a2.74,2.74,0,0,0,0,.5,1.23,1.23,0,0,0,0,.27V8Z"/><path class="cls-1" d="M8,2a4.19,4.19,0,0,0-.5,0,2.73,2.73,0,0,0-.5.05V2Z"/><path class="cls-1" d="M15,8v.77a1.23,1.23,0,0,0,0-.27A2.74,2.74,0,0,0,15,8Z"/><path class="cls-1" d="M15,8.77V9h0A1.77,1.77,0,0,0,15,8.77Z"/><path class="cls-1" d="M1,9H1V8.77A1.77,1.77,0,0,0,1,9Z"/><path class="cls-1" d="M3,8V9H1a1.77,1.77,0,0,1,0-.23A1.23,1.23,0,0,1,1,8.5a2.74,2.74,0,0,1,0-.5Z"/><path class="cls-1" d="M1.05,8a2.74,2.74,0,0,0,0,.5,1.23,1.23,0,0,0,0,.27V8Z"/><path class="cls-1" d="M15,8v.77a1.23,1.23,0,0,0,0-.27A2.74,2.74,0,0,0,15,8Z"/><path class="cls-1" d="M15,8.77A1.77,1.77,0,0,1,15,9H13V8H15a2.74,2.74,0,0,1,0,.5A1.23,1.23,0,0,1,15,8.77Z"/><path class="cls-1" d="M15,8.77V9h0A1.77,1.77,0,0,0,15,8.77Z"/><path class="cls-1" d="M8,2V4H7V2.08A2.73,2.73,0,0,1,7.5,2,4.19,4.19,0,0,1,8,2Z"/><path class="cls-1" d="M8,2a4.19,4.19,0,0,0-.5,0,2.73,2.73,0,0,0-.5.05V2Z"/></g></svg>