<svg xmlns="http://www.w3.org/2000/svg" viewBox="0 0 16 16"><defs><style>.cls-1{fill:none;stroke:#3088d8;stroke-miterlimit:10;}</style></defs><title>db_group_1</title><g id="图层_2" data-name="图层 2"><rect class="cls-1" x="1.5" y="0.5" width="6" height="3"/><polyline class="cls-1" points="2.99 6.5 1.5 6.5 1.5 3.5 7.5 3.5 7.5 5"/><polyline class="cls-1" points="2.96 9.5 1.5 9.5 1.5 6.5 2.99 6.5"/><rect class="cls-1" x="4.5" y="12.5" width="7" height="3"/><rect class="cls-1" x="4.5" y="9.5" width="7" height="3"/><rect class="cls-1" x="4.5" y="6.5" width="7" height="3"/><polyline class="cls-1" points="9.5 5 9.5 3.5 15.5 3.5 15.5 6.5 13.01 6.5"/><polyline class="cls-1" points="13.01 6.5 15.5 6.5 15.5 9.5 13.01 9.5"/><polyline class="cls-1" points="13.01 9.5 15.5 9.5 15.5 12.5 13.01 12.5"/></g></svg>