<svg xmlns="http://www.w3.org/2000/svg" viewBox="0 0 16 16"><defs><style>.cls-1{fill:#3088d8;}</style></defs><title>debug</title><g id="图层_2" data-name="图层 2"><path class="cls-1" d="M10.65,3.41v.5H5.35v-.5A2.8,2.8,0,0,1,8,.5,2.8,2.8,0,0,1,10.65,3.41Z"/><path class="cls-1" d="M12.8,10.4V9.93H15v-1H12.8V8.11a4.71,4.71,0,0,0-.26-1.6l2.38-1.86-.31-.4-.3-.39-2.17,1.7h0L12,5.32H4l-.13.23h0v0L1.69,3.86l-.3.39-.31.4L3.44,6.5h0a4.83,4.83,0,0,0-.26,1.6v.82H1v1H3.19v.47a5,5,0,0,0,.35,1.89h0L1.08,14.23l.3.39.31.4L4,13.22a4.84,4.84,0,0,0,3,2.16V8H9v7.38a5,5,0,0,0,3-2.16l2.3,1.8.31-.4.3-.39L12.46,12.3h0A5.61,5.61,0,0,0,12.8,10.4Z"/><rect class="cls-1" x="7.99" y="9.43" width="0.01" height="0.01"/></g></svg>