<svg xmlns="http://www.w3.org/2000/svg" viewBox="0 0 16 16"><defs><style>.cls-1{fill:none;stroke:#9fa0a0;}.cls-1,.cls-2{stroke-miterlimit:10;}.cls-2{fill:#9fa0a0;stroke:#9fa0a0;}</style></defs><title>disconnect</title><g id="图层_2" data-name="图层 2"><path class="cls-1" d="M2.61,1.47C1.07,2.84,1.62,6,3.83,8.53l5.63-5C7.19,1,4.14.11,2.61,1.47Z"/><path class="cls-1" d="M12.39,6.59l-.09-.08L6.84,11.69l.08.09c2.37,2.49,5.51,3.35,7,1.92S14.75,9.08,12.39,6.59Z"/><line class="cls-1" x1="13.86" y1="13.77" x2="15.08" y2="15.17"/><line class="cls-1" x1="2.61" y1="1.47" x2="1.39" y2="0.07"/><line class="cls-1" x1="6.04" y1="8.73" x2="7.89" y2="10.58"/><line class="cls-1" x1="9.17" y1="6.12" x2="10.85" y2="7.8"/><path class="cls-2" d="M5.24,13.19a2.33,2.33,0,1,1-2.33-2.33A2.32,2.32,0,0,1,5.24,13.19Z"/></g></svg>