<svg xmlns="http://www.w3.org/2000/svg" viewBox="0 0 16 16"><defs><style>.cls-1{fill:#3088d8;}</style></defs><title>dte</title><g id="图层_2" data-name="图层 2"><polygon class="cls-1" points="7.46 12.13 7.46 13.38 12.17 13.38 12.17 15.27 7.46 15.27 7.46 16.53 4 14.33 7.46 12.13"/><polygon class="cls-1" points="12.49 8 12.49 9.26 7.77 9.26 7.77 11.14 12.49 11.14 12.49 12.4 15.95 10.2 12.49 8"/><rect class="cls-1" x="4" y="4" width="4" height="1"/><rect class="cls-1" x="4" y="6" width="7" height="1"/><polygon class="cls-1" points="9 8 9 8.26 7.77 8.26 7.77 9 4 9 4 8 9 8"/><rect class="cls-1" x="4" y="10" width="2.2" height="1"/><polygon class="cls-1" points="14 4 10 4 10 0.08 10.08 0.08 14 4"/><path class="cls-1" d="M2,1.08v13H3.53l-.39.25,1.18.75H1.5a.5.5,0,0,1-.5-.5V.58a.5.5,0,0,1,.5-.5H10v1Z"/><polygon class="cls-1" points="14 4 14 7.14 13 6.5 13 4 14 4"/><polygon class="cls-1" points="10.08 0.08 10 0.08 10 0 10.08 0.08"/></g></svg>