<svg xmlns="http://www.w3.org/2000/svg" viewBox="0 0 16 16"><defs><style>.cls-1{fill:#9fa0a0;}</style></defs><title>filter_folder</title><g id="图层_2" data-name="图层 2"><path class="cls-1" d="M15,10l0,3.5a.5.5,0,0,1-.4.49H13.5V13H14V10.78Z"/><path class="cls-1" d="M15,3.31h0a.56.56,0,0,0-.05-.08.13.13,0,0,0-.06-.07.13.13,0,0,0-.07-.06L14.7,3h0a.43.43,0,0,0-.19,0H7.84L6.51,1.2a.51.51,0,0,0-.4-.2H.5a.5.5,0,0,0-.5.5v12a.5.5,0,0,0,.5.5h9.62V13H1V4H14V6h1V3.5A.43.43,0,0,0,15,3.31ZM1,3V2H5.86l.73,1Z"/><path class="cls-1" d="M15,10l0,3.5a.5.5,0,0,1-.4.49A.48.48,0,0,0,15,13.5V10Zm0-4h0V6Zm-.14-2.85a.13.13,0,0,0-.07-.06.27.27,0,0,1,.13.13A.13.13,0,0,0,14.85,3.15Z"/><path class="cls-1" d="M15.87,7.35V8a.59.59,0,0,1-.24.47L15,9l0,0-2.22,1.78v4.83a.59.59,0,0,1-.6.6h-.69a.59.59,0,0,1-.59-.6V10.82L8,8.5A.58.58,0,0,1,7.75,8V7.35a.59.59,0,0,1,.6-.6h6.92A.6.6,0,0,1,15.87,7.35Z"/></g></svg>