<svg xmlns="http://www.w3.org/2000/svg" viewBox="0 0 16 16"><defs><style>.cls-1,.cls-2{fill:none;stroke:#3088d8;stroke-miterlimit:10;}.cls-1{stroke-width:2px;}</style></defs><title>filter_clear</title><g id="图层_2" data-name="图层 2"><line class="cls-1" x1="9" y1="14" x2="15" y2="8"/><line class="cls-1" x1="15" y1="14" x2="9" y2="8"/><path class="cls-2" d="M12.35,2.11v1a.52.52,0,0,1-.2.4L7.68,7.12a.59.59,0,0,1,0,.14v7.22a.51.51,0,0,1-.51.52h-1a.52.52,0,0,1-.52-.52V7.26a.59.59,0,0,1,0-.14L1.2,3.54a.49.49,0,0,1-.2-.4v-1a.52.52,0,0,1,.52-.52H11.83A.52.52,0,0,1,12.35,2.11Z"/></g></svg>