<svg xmlns="http://www.w3.org/2000/svg" viewBox="0 0 16 16"><defs><style>.cls-1{fill:none;stroke:#3088d8;stroke-linecap:round;stroke-linejoin:round;}.cls-2{fill:#3088d8;}</style></defs><title>folder_ext</title><g id="图层_2" data-name="图层 2"><polyline class="cls-1" points="0.5 14.5 0.57 2.5 5.71 2.5 7.08 4.5 13.66 4.5 13.6 7.5"/><polygon class="cls-1" points="13.39 14.5 0.57 14.5 2.53 7.5 15.35 7.5 13.39 14.5"/><path class="cls-2" d="M15.32,7.3c-.27,1.18-3.18,2.92-3.86,2.49L11,9.49a14.68,14.68,0,0,1-1.2-1A3.17,3.17,0,0,0,12.4,6.62c.18-.81-.44-1.88-1.77-2.48L8.85,5.92a.47.47,0,0,1-.35.15.65.65,0,0,1-.19,0A.5.5,0,0,1,8,5.57V.5A.5.5,0,0,1,8.5,0h5.07A.5.5,0,0,1,14,.31a.49.49,0,0,1-.11.54L12.83,1.94A5.13,5.13,0,0,1,15.32,7.3Z"/></g></svg>