<svg id="图层_2" data-name="图层 2" xmlns="http://www.w3.org/2000/svg" viewBox="0 0 16 16"><defs><style>.cls-1{fill:#3088d8;}.cls-2{fill:none;stroke:#3088d8;stroke-miterlimit:10;}</style></defs><title>index_optimize</title><path class="cls-1" d="M5,0V6h6V0Zm5,5H6V2h4Z"/><polyline class="cls-2" points="2.5 10 2.5 7.5 8 7.5 8 5"/><path class="cls-1" d="M0,9v6H6V9Zm5,5H1V11H5Z"/><path class="cls-2" d="M10,8.5h4A1.5,1.5,0,0,1,15.5,10h0A1.5,1.5,0,0,1,14,11.5H11"/><path class="cls-2" d="M14,14.5H11a1.5,1.5,0,0,1,0-3h3"/><polygon class="cls-1" points="13.62 13.2 15.87 14.5 13.62 15.8 13.62 13.2"/></svg>