<svg xmlns="http://www.w3.org/2000/svg" viewBox="0 0 16 16"><defs><style>.cls-1{fill:none;stroke:#3088d8;stroke-miterlimit:10;}.cls-2{fill:#3088d8;}</style></defs><title>inspect</title><g id="图层_2" data-name="图层 2"><line class="cls-1" x1="12.5" y1="12.5" x2="15" y2="15"/><rect class="cls-2" x="1" y="4" width="1" height="2"/><path class="cls-2" d="M4,6.08,6.5,1.75l.87.5L5.1,6.17,6.6,8.78a5.45,5.45,0,0,1-.25.55,3.88,3.88,0,0,1-.3.48L4,6.25"/><path class="cls-2" d="M7,6.08,9.5,1.75l.87.5L8.1,6.17,9.6,8.78a5.45,5.45,0,0,1-.25.55,3.88,3.88,0,0,1-.3.48L7,6.25"/><path class="cls-2" d="M10,6.08l2.5-4.33.87.5L11.1,6.17l1.5,2.61a5.45,5.45,0,0,1-.25.55,3.88,3.88,0,0,1-.3.48L10,6.25"/><path class="cls-1" d="M14.5,8a6.5,6.5,0,0,1-13,0"/></g></svg>