<svg xmlns="http://www.w3.org/2000/svg" viewBox="0 0 16 16"><defs><style>.cls-1{fill:none;stroke:#3088d8;stroke-miterlimit:10;}.cls-2{fill:#3088d8;}</style></defs><title>logout</title><g id="图层_2" data-name="图层 2"><path class="cls-1" d="M12.5,13V14A1.47,1.47,0,0,1,11,15.5H3A1.47,1.47,0,0,1,1.5,14V2A1.47,1.47,0,0,1,3,.5H11A1.47,1.47,0,0,1,12.5,2V4"/><path class="cls-2" d="M10,7V5.5a.5.5,0,0,1,.8-.4l4,3a.5.5,0,0,1,0,.8l-4,3a.47.47,0,0,1-.3.1.54.54,0,0,1-.22-.05A.51.51,0,0,1,10,11.5V10H7V7ZM8,9h3v1.5l2.67-2L11,6.5V8H8Z"/></g></svg>