<svg xmlns="http://www.w3.org/2000/svg" viewBox="0 0 48 48"><defs><style>.cls-1{fill:#9fa0a0;}</style></defs><title>notify</title><g id="图层_2" data-name="图层 2"><path class="cls-1" d="M17.22,43.7H31.55c-.8,3.33-3.92,6-7.06,6A7.54,7.54,0,0,1,17.22,43.7Z"/><path class="cls-1" d="M42.83,36c-3-2.38-3.92-5.32-5.26-10.83C37.39,21,36.69,15,35.08,11c-1.28-2.89-3.22-6.53-7.8-7.27A3,3,0,0,0,27,1.06C26-.29,23.49-.34,22,.86a2.53,2.53,0,0,0-.43,2.86c-2.85.51-5,1.81-7,5.5-2.21,4.43-2.93,10.09-3.3,15.91-1.63,7.08-2.81,8.15-4,9.61-1.46,1.65-2,1.56-3.15,4.07-.34,1.49.18,2.29,1.76,2.29l37.13,0c1.24-.11,1.77-.58,1.77-1.28A6.61,6.61,0,0,0,42.83,36ZM8.16,38.1,8.21,38c.34-.32.76-.72,1.29-1.31l.29-.36c1.58-1.9,2.82-3.78,4.38-10.57l.06-.24v-.24c.32-4.95.92-10.56,3-14.71,1.56-2.84,3-3.59,4.92-3.94l2.19-.39,2.48.4c2.77.45,4.17,2.45,5.54,5.52,1.37,3.37,2.06,9,2.23,13.07v.29l.07.29c1.37,5.59,2.4,9.23,6,12.22Z"/></g></svg>