<svg xmlns="http://www.w3.org/2000/svg" viewBox="0 0 16 16"><defs><style>.cls-1{fill:#9fa0a0;}.cls-2{fill:#9fa0a0;}.cls-3{fill:#9fa0a0;}</style></defs><title>primary_key</title><g id="图层_2" data-name="图层 2"><path class="cls-1" d="M10.5,3.11h-.06a.85.85,0,0,0-.38.09.75.75,0,0,1,.38-.1Z"/><path class="cls-1" d="M11.73,4.36a1.33,1.33,0,0,0,0-.53A1.06,1.06,0,0,1,11.73,4.36Z"/><path class="cls-2" d="M11.78,3.83a1.33,1.33,0,0,1,0,.53A1.06,1.06,0,0,0,11.78,3.83Zm0-.14a.33.33,0,0,1,0,.14.27.27,0,0,0,0-.09S11.77,3.71,11.77,3.69Zm-1.11,1.6.06,0a.84.84,0,0,1-.27,0Z"/><path class="cls-2" d="M10.44,3.1a.75.75,0,0,0-.38.1.85.85,0,0,1,.38-.09h0Z"/><path class="cls-1" d="M10.45,5.31a.84.84,0,0,0,.27,0l-.06,0Z"/><path class="cls-1" d="M10.5,3.11h-.06a.85.85,0,0,0-.38.09.75.75,0,0,1,.38-.1Z"/><path class="cls-1" d="M11.78,3.74a.27.27,0,0,1,0,.09.33.33,0,0,0,0-.14S11.78,3.72,11.78,3.74Z"/><path class="cls-1" d="M11.73,4.36a1.33,1.33,0,0,0,0-.53A1.06,1.06,0,0,1,11.73,4.36Z"/><path class="cls-2" d="M12.67,1.13a4.93,4.93,0,0,0-6.91.74,4.67,4.67,0,0,0,0,5.44L.89,14.05l2.69,2.06L5,14.16l1.93,1.41,2-2.74L7,11.42l1.47-2A4.72,4.72,0,0,0,14,7.94a4.39,4.39,0,0,0,.84-2.61A5.27,5.27,0,0,0,12.67,1.13Zm.57,6.21a3.81,3.81,0,0,1-4.72,1l-.37-.17L5.61,11.64l1.93,1.41-.82,1.12L4.79,12.76,3.38,14.69l-1.11-.84L7.06,7.3,6.82,7a3.74,3.74,0,0,1-.26-4.54,3.56,3.56,0,0,1,2.91-1.4,4.51,4.51,0,0,1,2.61.87A4,4,0,0,1,13.24,7.34Z"/><path class="cls-2" d="M12.28,3.68a1.82,1.82,0,0,0-.75-1.21,1.85,1.85,0,0,0-2.59.4,1.87,1.87,0,0,0,.41,2.58,1.8,1.8,0,0,0,1.08.36l.3,0a1.79,1.79,0,0,0,1.2-.73A1.83,1.83,0,0,0,12.28,3.68Zm-1.15.77h0a.84.84,0,0,1-.55.34A.85.85,0,0,1,10,4.65a.86.86,0,0,1-.2-1.19.85.85,0,0,1,.31-.26.75.75,0,0,1,.38-.1h.06a.08.08,0,0,1,.07,0l.13,0a1,1,0,0,1,.25.13.87.87,0,0,1,.34.55A.82.82,0,0,1,11.13,4.45Z"/><path class="cls-2" d="M10.44,3.1a.75.75,0,0,0-.38.1.85.85,0,0,1,.38-.09h0Z"/><path class="cls-1" d="M11.24,2.87a1.35,1.35,0,0,0-1.89.29,1.37,1.37,0,0,0,.3,1.89,1.34,1.34,0,0,0,1.88-.3A1.33,1.33,0,0,0,11.24,2.87Zm-.11,1.58h0a.84.84,0,0,1-.55.34A.85.85,0,0,1,10,4.65a.85.85,0,0,1,.49-1.54.84.84,0,0,1,.51.17.87.87,0,0,1,.34.55A.82.82,0,0,1,11.13,4.45Z"/><path class="cls-2" d="M12.28,3.68a1.86,1.86,0,0,0-3.34-.81,1.87,1.87,0,0,0,.41,2.58,1.8,1.8,0,0,0,1.08.36l.3,0a1.79,1.79,0,0,0,1.2-.73A1.83,1.83,0,0,0,12.28,3.68Zm-1.15.77h0a.84.84,0,0,1-.55.34A.85.85,0,0,1,10,4.65a.85.85,0,0,1,.49-1.54.84.84,0,0,1,.51.17.87.87,0,0,1,.34.55A.82.82,0,0,1,11.13,4.45Z"/><polyline class="cls-3" points="8.5 12.66 11.53 15.5 16 7.98 14.71 7.37 11.32 13.12 8.96 11.13"/></g></svg>