<?xml version="1.0" encoding="utf-8"?>
<svg version="1.1" id="图层_1" xmlns="http://www.w3.org/2000/svg" xmlns:xlink="http://www.w3.org/1999/xlink" x="0px" y="0px"
 viewBox="0 0 16 16" style="enable-background:new 0 0 16 16;vertical-align:text-top;width:16px; height:16px; color:#82B366; " xml:space="preserve">
 <style type="text/css">.st0{fill:currentColor;}</style>
  <path class="st0" d="M5.2,8.1c0,0,0,0.1,0,0.1c0,0,0,0.1,0,0.1c0,0.2,0.1,0.4,0.1,0.6c0.1,0.3,0.3,0.7,0.6,0.9L6,10.1
                c0.3,0.3,0.6,0.4,1,0.5c0.1,0,0.3,0,0.4,0c0,0,0.1,0,0.1,0h0.2c0.5,0,1.1-0.3,1.5-0.6c0.1-0.1,0.1-0.1,0.2-0.2C9.7,9.5,9.9,9,10,8.6
                v5.1c-0.2,0.1-0.4,0.2-0.6,0.2l0.1,1.8l-3.2,0.1v-1.8c-0.2-0.1-0.5-0.1-0.7-0.2c-0.2-0.1-0.4-0.1-0.6-0.3l-1.3,1.3l-2.3-2.2l1.3-1.3
                C2.3,10.8,2.1,10.4,2,10H0.1L0,6.8h1.8C2,6.4,2.1,5.9,2.3,5.5L1,4.2l2.3-2.3l1.3,1.3C5,2.9,5.4,2.7,5.8,2.6V0.7L9,0.6l0.1,1.8
                C9.5,2.6,9.9,2.8,10.4,3l1.3-1.3L14,3.9l-1.3,1.3c0.2,0.4,0.4,0.8,0.6,1.2h1.8V8H10c0-0.1,0-0.3-0.1-0.4c-0.1-0.4-0.3-0.7-0.6-1
                L9.2,6.4c-0.4-0.3-1-0.5-1.5-0.6H7.5c0,0-0.1,0-0.1,0c-0.5,0-1,0.3-1.4,0.6c-0.1,0-0.1,0.1-0.2,0.2c-0.3,0.3-0.4,0.7-0.5,1
                C5.2,7.8,5.2,8,5.2,8.1z"/>
            <path class="st0" d="M16,11.7c0,0.1-0.1,0.3-0.2,0.4L11.9,16c-0.1,0.1-0.2,0.2-0.4,0.2c-0.1,0-0.1,0-0.2,0C11.2,16,11,15.8,11,15.6
                l0-7.3c0-0.2,0.1-0.4,0.3-0.5c0.2-0.1,0.4-0.1,0.5,0.1l3.9,3.3C15.9,11.4,16,11.5,16,11.7z"/>
 </svg>
