<svg xmlns="http://www.w3.org/2000/svg" viewBox="0 0 16 16"><defs><style>.cls-1,.cls-2{fill:#3088d8;}.cls-2{stroke:#3088d8;stroke-linejoin:round;}</style></defs><title>process</title><g id="图层_2" data-name="图层 2"><path class="cls-1" d="M5.18,8.14a.56.56,0,0,0,0,.13.57.57,0,0,0,0,.14A2.07,2.07,0,0,0,5.3,9a2.48,2.48,0,0,0,.56.92l.17.17a2.56,2.56,0,0,0,1,.54,1.71,1.71,0,0,0,.45,0,.35.35,0,0,0,.14,0H7.8A2.42,2.42,0,0,0,9.27,10c.05-.07.12-.13.17-.19A2.36,2.36,0,0,0,10,8.55v5.07q-.32.14-.63.24l.06,1.84-3.24.08,0-1.84a3.38,3.38,0,0,1-.72-.24,2.6,2.6,0,0,1-.57-.25L3.59,14.79,1.26,12.56l1.25-1.33A5.44,5.44,0,0,1,2,10L.12,10,0,6.8l1.84,0a6.08,6.08,0,0,1,.48-1.29L1,4.2,3.25,1.87,4.59,3.13a6,6,0,0,1,1.24-.56l0-1.84L9,.65l.06,1.84A6.49,6.49,0,0,1,10.35,3l1.26-1.32L14,3.86,12.69,5.2a5.27,5.27,0,0,1,.55,1.24l1.84,0,0,1.6H10a1.55,1.55,0,0,0-.07-.43,2.48,2.48,0,0,0-.58-1l-.19-.2a2.54,2.54,0,0,0-1.5-.57H7.53a.31.31,0,0,0-.13,0A2.32,2.32,0,0,0,6,6.46a.81.81,0,0,0-.19.18,2.42,2.42,0,0,0-.52,1.05C5.21,7.84,5.2,8,5.18,8.14Z"/><polygon class="cls-2" points="11.56 8.36 15.46 11.7 11.54 15.64 11.54 15.36 11.56 8.64 11.56 8.36"/></g></svg>