<svg xmlns="http://www.w3.org/2000/svg" viewBox="0 0 16 16"><defs><style>.cls-1{fill:#9fa0a0;}</style></defs><title>redeploy</title><g id="图层_2" data-name="图层 2"><path class="cls-1" d="M15.55,2.1a.36.36,0,0,0-.25-.18A.35.35,0,0,0,15,2L13.07,3.92l-.93-.2L12,2.86,14,1a.31.31,0,0,0,.09-.29.3.3,0,0,0-.18-.24A3.91,3.91,0,0,0,12.1,0a3.75,3.75,0,0,0-1.51.31,3.66,3.66,0,0,0-1.23.83,3.66,3.66,0,0,0-.83,1.23,3.92,3.92,0,0,0-.31,1.51,3.75,3.75,0,0,0,.31,1.51.17.17,0,0,0,0,.05L5.38,8.54a4,4,0,0,0-1.48-.3,3.68,3.68,0,0,0-1.51.31,3.66,3.66,0,0,0-1.23.83,3.85,3.85,0,0,0-.84,1.23A3.92,3.92,0,0,0,.45,13.9a.36.36,0,0,0,.25.18A.35.35,0,0,0,1,14l2-1.91.93.2.12.86L2,15a.31.31,0,0,0-.09.29.3.3,0,0,0,.18.24A3.91,3.91,0,0,0,3.9,16a3.75,3.75,0,0,0,1.51-.31,3.66,3.66,0,0,0,1.23-.83,3.66,3.66,0,0,0,.83-1.23,3.92,3.92,0,0,0,.31-1.51,3.75,3.75,0,0,0-.31-1.51l0,0,3.17-3.1a4,4,0,0,0,1.48.3,3.89,3.89,0,0,0,2.74-1.14,3.85,3.85,0,0,0,.84-1.23,3.92,3.92,0,0,0-.13-3.29ZM15,5.1a3.18,3.18,0,0,1-.68,1,3,3,0,0,1-1,.67A3,3,0,0,1,12.1,7a3.29,3.29,0,0,1-.88-.13L11,6.81l0,0-.22-.08-.35-.11L6.59,10.36l.16.47,0,.05c0,.06.05.11.07.17A3.06,3.06,0,0,1,7,12.12a3.21,3.21,0,0,1-.25,1.22,3,3,0,0,1-.67,1,3,3,0,0,1-1,.67,3.08,3.08,0,0,1-2.1.12l1.75-1.7-.23-1.77-1.85-.38L.9,13a3,3,0,0,1-.13-.9,3,3,0,0,1,.92-2.21,3,3,0,0,1,1-.67A3,3,0,0,1,3.9,9a3.29,3.29,0,0,1,.88.13l.2.07,0,0,.22.08.35.11L9.41,5.64l-.16-.47,0,0c0-.06-.05-.11-.07-.17A3.06,3.06,0,0,1,9,3.88a3.21,3.21,0,0,1,.25-1.22,3,3,0,0,1,.67-1,3,3,0,0,1,1-.67A3.08,3.08,0,0,1,13,.88l-1.75,1.7.23,1.77,1.85.38L15.1,3a3,3,0,0,1,.13.9A3.16,3.16,0,0,1,15,5.1Z"/></g></svg>