<svg xmlns="http://www.w3.org/2000/svg" viewBox="0 0 16 16"><defs><style>.cls-1,.cls-2{fill:none;stroke:#3088d8;}.cls-1{stroke-miterlimit:10;}.cls-2{stroke-linejoin:round;}.cls-3{fill:#3088d8;}</style></defs><title>role</title><g id="图层_2" data-name="图层 2"><path class="cls-1" d="M8.54,4A2.52,2.52,0,1,1,6,1.5,2.51,2.51,0,0,1,8.54,4Z"/><path class="cls-1" d="M.5,14A5.5,5.5,0,0,1,6,8.5a5.36,5.36,0,0,1,2,.38"/><polygon class="cls-2" points="12.5 15.5 9.5 13.5 9.5 8.5 15.5 8.5 15.5 13.5 12.5 15.5"/><polygon class="cls-3" points="12.46 9.5 13.07 10.73 14.43 10.93 13.45 11.88 13.68 13.24 12.46 12.6 11.25 13.24 11.48 11.88 10.5 10.93 11.86 10.73 12.46 9.5"/></g></svg>