<svg xmlns="http://www.w3.org/2000/svg" viewBox="0 0 16 16"><defs><style>.cls-1,.cls-2{fill:#9fa0a0;}.cls-2{stroke:#9fa0a0;stroke-miterlimit:10;}</style></defs><title>set_bak_work_directory</title><g id="图层_2" data-name="图层 2"><path class="cls-1" d="M15,4.31h0a.56.56,0,0,0-.05-.08.13.13,0,0,0-.06-.07.13.13,0,0,0-.07-.06L14.7,4h0a.43.43,0,0,0-.19,0H7.84L6.51,2.2a.51.51,0,0,0-.4-.2H.5a.5.5,0,0,0-.5.5v12a.5.5,0,0,0,.5.5h5V14H1V5H14v5l1,.68,0,0V4.5A.43.43,0,0,0,15,4.31ZM1,4V3H5.86l.73,1Z"/><path class="cls-1" d="M14.85,4.15a.13.13,0,0,0-.07-.06.27.27,0,0,1,.13.13A.13.13,0,0,0,14.85,4.15Z"/><polygon class="cls-2" points="11.43 15.25 11.43 13.49 7 13.49 7 11.76 11.43 11.76 11.43 10 15.18 12.63 11.43 15.25"/></g></svg>