<svg xmlns="http://www.w3.org/2000/svg" viewBox="0 0 16 16"><defs><style>.cls-1{fill:#487ab9;}.cls-2{fill:#6bb8ff;}.cls-3{fill:#3088d8;}.cls-4{fill:none;stroke:#3088d8;stroke-miterlimit:10;}.cls-5{fill:#cf3d4f;}</style></defs><title>start_stop</title><g id="图层_2" data-name="图层 2"><rect class="cls-1" width="7" height="2"/><polygon class="cls-1" points="7 3 7 5 2 5 2 6 0 6 0 3 7 3"/><rect class="cls-1" y="7" width="2" height="3"/><path class="cls-2" d="M15,6v.81A5.86,5.86,0,0,0,12,6Z"/><rect class="cls-2" x="9" y="3" width="6" height="2"/><path class="cls-3" d="M7.54,16H3V13H6.09A5.83,5.83,0,0,0,7.54,16Z"/><path class="cls-3" d="M6.81,9A5.86,5.86,0,0,0,6,12H3V9Z"/><path class="cls-3" d="M11,6v.09A5.89,5.89,0,0,0,7.54,8H3V6Z"/><path class="cls-4" d="M14.07,9.18a3.5,3.5,0,1,1-4.11,0"/><rect class="cls-5" x="11.5" y="8" width="1" height="3"/></g></svg>