<svg id="图层_1" data-name="图层 1" xmlns="http://www.w3.org/2000/svg" viewBox="0 0 200 200"><defs><style>.cls-1{fill:#3088d8;}</style></defs><title>config</title><path class="cls-1" d="M100,11.05a36.17,36.17,0,0,1,7.69.55l2.2,12.16a16.28,16.28,0,0,0,11,12.7,61.16,61.16,0,0,1,8.79,3.87A17.42,17.42,0,0,0,137.36,42a18.49,18.49,0,0,0,9.34-2.76L156.59,32c3.85,3.32,7.7,6.63,10.44,10.5l-7.14,10a17.29,17.29,0,0,0-1.1,17.12,43.16,43.16,0,0,1,3.85,8.84c2.2,6.08,6.59,10,12.63,11l12.09,2.21c0,2.77.55,5,.55,7.74a36.59,36.59,0,0,1-.55,7.73l-12.09,2.21a16.28,16.28,0,0,0-12.63,11,61.53,61.53,0,0,1-3.85,8.84,17.31,17.31,0,0,0,1.1,17.13l7.14,9.94c-3.29,3.87-6.59,7.74-10.44,10.5l-9.89-7.18c-2.74-2.21-6-2.76-9.34-2.76a19.4,19.4,0,0,0-7.69,1.65,42,42,0,0,1-8.79,3.87c-6,2.21-9.89,6.63-11,12.71l-2.2,12.15c-2.74,0-4.94.56-7.69.56a35.54,35.54,0,0,1-7.69-.56l-2.2-12.15a16.29,16.29,0,0,0-11-12.71,60.07,60.07,0,0,1-8.79-3.87,17.55,17.55,0,0,0-7.69-1.65,18.39,18.39,0,0,0-9.34,2.76l-9.89,7.18c-3.85-3.31-7.7-6.63-10.44-10.5l7.14-9.94a17.31,17.31,0,0,0,1.1-17.13,42.69,42.69,0,0,1-3.85-8.84c-2.2-6.08-6.59-9.94-12.63-11l-12.09-2.21c0-2.76-.55-5-.55-7.73a36.73,36.73,0,0,1,.55-7.74L24.73,89.5a16.24,16.24,0,0,0,12.63-11,62,62,0,0,1,3.85-8.84,17.29,17.29,0,0,0-1.1-17.12L33,42.54c3.29-3.87,6.59-7.73,10.44-10.5l9.89,7.19C56,41.44,59.34,42,62.64,42a19.24,19.24,0,0,0,7.69-1.66,42.53,42.53,0,0,1,8.79-3.87c6-2.21,9.89-6.63,11-12.7l2.2-12.16a36.17,36.17,0,0,1,7.69-.55m0-11A106.64,106.64,0,0,0,86.81,1.1c-2.19.56-4.39,2.21-4.39,4.42L79.67,22.1C79.12,24.31,78,26,75.82,26.52a83.79,83.79,0,0,0-10.44,4.42c-.54.55-1.64.55-2.74.55a7.82,7.82,0,0,1-3.3-1.1L46.15,21a7.78,7.78,0,0,0-3.29-1.1,7.82,7.82,0,0,0-3.3,1.1A100.72,100.72,0,0,0,20.88,39.78c-1.65,1.66-1.65,4.42,0,6.63l9.34,13.26a6.56,6.56,0,0,1,.55,5.52,60.13,60.13,0,0,0-4.4,10.5C25.82,77.9,24.18,79,22,79.56L5.49,82.32c-2.19.55-4.39,2.21-4.39,4.42A107.77,107.77,0,0,0,0,100a107.77,107.77,0,0,0,1.1,13.26c.55,2.21,2.2,4.42,4.39,4.42L22,120.44c2.2.55,3.84,1.66,4.39,3.87a85.9,85.9,0,0,0,4.4,10.5,4.26,4.26,0,0,1-.55,5.52l-9.34,13.26c-1.1,2.21-1.65,4.42,0,6.63A100.72,100.72,0,0,0,39.56,179a7.82,7.82,0,0,0,3.3,1.1,7.78,7.78,0,0,0,3.29-1.1l13.19-9.4a7.82,7.82,0,0,1,3.3-1.1,4.91,4.91,0,0,1,2.74.55,59.11,59.11,0,0,0,10.44,4.42c2.2.55,3.3,2.21,3.85,4.42l2.75,16.58c.55,2.21,2.2,4.42,4.39,4.42A106.64,106.64,0,0,0,100,200a106.64,106.64,0,0,0,13.19-1.1c2.19-.56,4.39-2.21,4.39-4.42l2.75-16.58c.55-2.21,1.65-3.87,3.85-4.42a83.79,83.79,0,0,0,10.44-4.42c.54-.55,1.64-.55,2.74-.55a7.82,7.82,0,0,1,3.3,1.1l13.19,9.4a5.49,5.49,0,0,0,6.59,0,100.72,100.72,0,0,0,18.68-18.79c1.65-1.66,1.65-4.42,0-6.63l-9.34-13.26a6.56,6.56,0,0,1-.55-5.52,60.13,60.13,0,0,0,4.4-10.5c.55-2.21,2.19-3.32,4.39-3.87l16.49-2.76c2.19-.55,4.39-2.21,4.39-4.42A107.77,107.77,0,0,0,200,100a107.77,107.77,0,0,0-1.1-13.26c-.55-2.21-2.2-4.42-4.39-4.42L178,79.56c-2.2-.55-3.84-1.66-4.39-3.87a85.9,85.9,0,0,0-4.4-10.5,4.26,4.26,0,0,1,.55-5.52l9.34-13.26c1.1-2.21,1.65-4.42,0-6.63A100.72,100.72,0,0,0,160.44,21a5.49,5.49,0,0,0-6.59,0l-13.19,9.4a7.82,7.82,0,0,1-3.3,1.1,4.91,4.91,0,0,1-2.74-.55,59.11,59.11,0,0,0-10.44-4.42c-2.2-.55-3.3-2.21-3.85-4.42L117.58,5.52c-.55-2.21-2.2-4.42-4.39-4.42A106.64,106.64,0,0,0,100,0Z"/><path class="cls-1" d="M100,77.35a22.1,22.1,0,1,1-22,22.1,22.1,22.1,0,0,1,22-22.1m0-11a33.15,33.15,0,1,0,33,33.15A33.16,33.16,0,0,0,100,66.3Z"/></svg>