<svg xmlns="http://www.w3.org/2000/svg" viewBox="0 0 16 16"><defs><style>.cls-1,.cls-2{fill:none;stroke:#3088d8;}.cls-1{stroke-linejoin:round;}.cls-2{stroke-miterlimit:10;}.cls-3{fill:#3088d8;}</style></defs><title>table_external</title><g id="图层_2" data-name="图层 2"><polygon class="cls-1" points="12.77 5.5 8.5 5.5 8.5 14.5 15.5 14.5 15.5 7.72 12.77 5.5"/><polygon class="cls-1" points="13.98 8.5 12.77 5.5 15.5 7.72 13.98 8.5"/><line class="cls-1" x1="10" y1="8.5" x2="13" y2="8.5"/><line class="cls-1" x1="10" y1="10.5" x2="14" y2="10.5"/><line class="cls-1" x1="10" y1="12.5" x2="14" y2="12.5"/><polyline class="cls-2" points="8.5 11.5 0.5 11.5 0.5 1.5 13.5 1.5 13.5 6.09"/><line class="cls-2" x1="1" y1="8.5" x2="8.5" y2="8.5"/><line class="cls-2" x1="1" y1="5.5" x2="14" y2="5.5"/><line class="cls-2" x1="9.5" y1="2" x2="9.5" y2="5.5"/><line class="cls-2" x1="4.5" y1="2" x2="4.5" y2="11"/><rect class="cls-3" y="1" width="14" height="2"/></g></svg>