<svg xmlns="http://www.w3.org/2000/svg" viewBox="0 0 16 16"><defs><style>.cls-1{fill:none;stroke:#3088d8;stroke-miterlimit:10;}.cls-2{fill:#e5bf23;}</style></defs><title>table_space_res_offline</title><g id="图层_2" data-name="图层 2"><polyline class="cls-1" points="7.5 7.5 1.5 7.5 1.5 0.5 8.5 0.5 8.5 3.5"/><polygon class="cls-1" points="14.5 3.5 14.5 10.5 11.5 10.5 11.5 7.5 7.5 7.5 7.5 3.5 14.5 3.5"/><polyline class="cls-1" points="4.5 7.5 11.5 7.5 11.5 14.5 5.43 14.5"/><path class="cls-2" d="M8.93,15.25l-4.08-7A.55.55,0,0,0,4.42,8,.51.51,0,0,0,4,8.26l-3.92,7a.5.5,0,0,0,0,.49A.48.48,0,0,0,.5,16h8a.5.5,0,0,0,.43-.25A.5.5,0,0,0,8.93,15.25ZM4,14H5v1H4Zm1-1H4V10H5Z"/></g></svg>