<svg xmlns="http://www.w3.org/2000/svg" viewBox="0 0 16 16"><defs><style>.cls-1{fill:#3088d8;}</style></defs><title>user_defined_2</title><g id="图层_2" data-name="图层 2"><path class="cls-1" d="M1.5,8a1.5,1.5,0,0,1,0,3c-.26,0-.52.13-.75,0l-.1,0H0v5H5v-.75c-.13-.23,0-.49,0-.75a1.5,1.5,0,0,1,3,0c0,.26.13.52,0,.75l0,.09V16h5V11.94a2.07,2.07,0,0,0,.5.06,2.5,2.5,0,0,0,0-5,2.07,2.07,0,0,0-.5.06V3H8.94A2.07,2.07,0,0,0,9,2.5a2.5,2.5,0,0,0-5,0,2.07,2.07,0,0,0,.06.5H0V8H.64M5,2.5a1.5,1.5,0,0,1,3,0c0,.26.13.52,0,.75l0,.09V4h4V8h.75c.23-.13.49,0,.75,0a1.5,1.5,0,0,1,0,3c-.26,0-.52.13-.75,0l-.1,0H12v4H8.94A2.07,2.07,0,0,0,9,14.5a2.5,2.5,0,0,0-5,0,2.07,2.07,0,0,0,.06.5H1V11.94a2.07,2.07,0,0,0,.5.06,2.5,2.5,0,0,0,0-5,2.73,2.73,0,0,0-.5,0V4H5V3.36"/></g></svg>