<svg xmlns="http://www.w3.org/2000/svg" viewBox="0 0 16 16"><defs><style>.cls-1{fill:none;stroke:#3088d8;stroke-miterlimit:10;}.cls-2{fill:#3088d8;}.cls-3{fill:#9fa0a0;}.cls-4{fill:#e5bf23;}</style></defs><title>user_locked</title><g id="图层_2" data-name="图层 2"><path class="cls-1" d="M8.07,4A2.52,2.52,0,0,1,3,4a2.52,2.52,0,0,1,5,0Z"/><path class="cls-2" d="M10.74,11.45h1.08a6.65,6.65,0,0,0-1.44-3.28L10.23,8H1.66l-.15.17A6.68,6.68,0,0,0,0,12.31a7.46,7.46,0,0,0,.4,2.37L.52,15H11.37l.12-.32a4.92,4.92,0,0,0,.23-.81h-1Zm-1-1V14H1.23A7.37,7.37,0,0,1,1,12.31,5.67,5.67,0,0,1,2.13,9H9.77a5.43,5.43,0,0,1,.77,1.45Z"/><path class="cls-3" d="M15.68,10.17H13.9c0-1.28-.81-2.37-1.77-2.37s-1.77,1.06-1.77,2.37H8.58A3.88,3.88,0,0,1,12.13,6,3.88,3.88,0,0,1,15.68,10.17Z"/><path class="cls-4" d="M8.44,10.22v5.34h7.12V10.22Zm4.4,3.89H11.32V12h1.52Z"/><path class="cls-4" d="M8,9.78V16h8V9.78Zm7.11,5.33H8.89V10.67h6.22Z"/></g></svg>