<?xml version="1.0" encoding="utf-8"?>
<!-- Generator: Adobe Illustrator 23.0.0, SVG Export Plug-In . SVG Version: 6.00 Build 0)  -->
<svg version="1.1" id="图层_1" xmlns="http://www.w3.org/2000/svg" xmlns:xlink="http://www.w3.org/1999/xlink" x="0px" y="0px"
	 viewBox="0 0 780 780" style="enable-background:new 0 0 780 780;" xml:space="preserve">
<style type="text/css">
	.st0{fill-rule:evenodd;clip-rule:evenodd;fill:currentColor;}
</style>
<path class="st0" d="M156.5,258.8c21-17.9,44.1-36,67.9-51.7c-18.1,59.7-21.5,188.3,115.9,209.9c103.2,16.3,129.3,49,117.2,212.4
	c-21.3,10-42.4,18.3-63.9,26.1c13.6-67.8,28.7-189.3-69.6-209.1C204.1,422.3,141.9,406.5,156.5,258.8L156.5,258.8z"/>
<path class="st0" d="M240.7,196.4c20.4-13,40.6-24.2,63.3-36.4c-23.4,109.4-15.5,204.3,112.5,224.3c75.8,11.9,134.7,39.3,119.5,202
	c-20.1,12.9-38.5,22.9-58.9,33.7c11.2-65,11.5-196.1-78.3-209.9C263.8,389.3,222.9,352.4,240.7,196.4L240.7,196.4z"/>
<path class="st0" d="M323,151c21.3-9.5,51-22.2,62.7-25.5c-23.2,82.3-11.4,212.5,94.1,229.8c98.7,16.2,144,71.3,133.6,176.1
	c-20.1,15.9-38.5,29.5-59,43.3c17.5-100.9-20-186.7-89.8-196.9C314.8,356,298,293.3,323,151L323,151z"/>
<path class="st0" d="M125.5,287.9C28.3,379.7-23.8,502.3,16.1,591.5C61.6,693.2,228.5,711.9,358.2,666
	c27.5-120.1,41.5-186.8-68.8-208.1C128.7,427,126.8,363.4,125.5,287.9L125.5,287.9z"/>
<path class="st0" d="M650.6,497.7c95.2-93,161.1-219.6,113.1-313.4c-54.2-106-225.5-109-342.6-69.9c-34.5,93.8-25,210.7,71.5,224.7
	C632.7,359.4,638.3,418.1,650.6,497.7L650.6,497.7z"/>
<path class="st0" d="M156.5,258.7c21-17.9,44.1-36,67.9-51.7c-18.1,59.7-21.5,188.3,115.9,209.9c103.2,16.3,129.3,49,117.2,212.4
	c-21.3,10-42.4,18.4-63.9,26.1c13.6-67.8,28.7-189.3-69.6-209.1C204.1,422.3,141.9,406.5,156.5,258.7L156.5,258.7z"/>
<path class="st0" d="M240.7,196.4c20.4-13,40.6-24.2,63.3-36.4c-23.4,109.4-15.5,204.3,112.5,224.3
	c75.8,11.9,134.7,39.3,119.5,202.1c-20.1,12.9-38.5,22.9-58.9,33.7c11.2-65,11.5-196.1-78.3-209.9
	C263.8,389.3,222.9,352.4,240.7,196.4L240.7,196.4z"/>
<path class="st0" d="M323,151c21.3-9.5,51-22.3,62.7-25.5c-23.2,82.3-11.4,212.5,94.1,229.8c98.7,16.2,144,71.3,133.6,176.1
	c-20.1,15.9-38.5,29.5-59,43.2c17.5-100.9-20-186.7-89.8-196.9C314.8,355.9,298,293.3,323,151L323,151z"/>
</svg>
